<mxfile host="app.diagrams.net" agent="Mozilla/5.0 (Windows NT 10.0; Win64; x64) AppleWebKit/537.36 (KHTML, like Gecko) Chrome/132.0.0.0 Safari/537.36" version="26.0.14">
  <diagram name="Page-1" id="g6o535AeuBo4uuo92C8d">
    <mxGraphModel dx="946" dy="542" grid="1" gridSize="10" guides="1" tooltips="1" connect="1" arrows="1" fold="1" page="1" pageScale="1" pageWidth="827" pageHeight="1169" math="0" shadow="0">
      <root>
        <mxCell id="0" />
        <mxCell id="1" parent="0" />
        <mxCell id="Kujb0lxLds-63Nh_CwnO-1" value="" style="ellipse;html=1;shape=startState;fillColor=#000000;strokeColor=#ff0000;" parent="1" vertex="1">
          <mxGeometry x="375" y="130" width="30" height="30" as="geometry" />
        </mxCell>
        <mxCell id="Kujb0lxLds-63Nh_CwnO-2" value="" style="edgeStyle=orthogonalEdgeStyle;html=1;verticalAlign=bottom;endArrow=open;endSize=8;strokeColor=#ff0000;rounded=0;" parent="1" source="Kujb0lxLds-63Nh_CwnO-1" edge="1">
          <mxGeometry relative="1" as="geometry">
            <mxPoint x="390" y="220" as="targetPoint" />
          </mxGeometry>
        </mxCell>
        <mxCell id="Kujb0lxLds-63Nh_CwnO-3" value="PLAYING" style="rounded=1;whiteSpace=wrap;html=1;arcSize=40;fontColor=#000000;fillColor=#ffffc0;strokeColor=#ff0000;" parent="1" vertex="1">
          <mxGeometry x="330" y="220" width="120" height="40" as="geometry" />
        </mxCell>
        <mxCell id="Kujb0lxLds-63Nh_CwnO-4" value="" style="edgeStyle=orthogonalEdgeStyle;html=1;verticalAlign=bottom;endArrow=open;endSize=8;strokeColor=#ff0000;rounded=0;entryX=0.5;entryY=0;entryDx=0;entryDy=0;exitX=0.75;exitY=1;exitDx=0;exitDy=0;" parent="1" target="Kujb0lxLds-63Nh_CwnO-5" edge="1" source="Kujb0lxLds-63Nh_CwnO-3">
          <mxGeometry relative="1" as="geometry">
            <mxPoint x="570" y="310" as="targetPoint" />
            <mxPoint x="450" y="240" as="sourcePoint" />
            <Array as="points" />
          </mxGeometry>
        </mxCell>
        <mxCell id="Kujb0lxLds-63Nh_CwnO-22" value="&lt;span style=&quot;font-size: 9px;&quot;&gt;movePictrue : [isSolved]&lt;/span&gt;" style="edgeLabel;html=1;align=center;verticalAlign=middle;resizable=0;points=[];" parent="Kujb0lxLds-63Nh_CwnO-4" vertex="1" connectable="0">
          <mxGeometry x="0.5004" y="-1" relative="1" as="geometry">
            <mxPoint x="31" y="-68" as="offset" />
          </mxGeometry>
        </mxCell>
        <mxCell id="Kujb0lxLds-63Nh_CwnO-5" value="SOLVED" style="rounded=1;whiteSpace=wrap;html=1;arcSize=40;fontColor=#000000;fillColor=#ffffc0;strokeColor=#ff0000;" parent="1" vertex="1">
          <mxGeometry x="360" y="420" width="120" height="40" as="geometry" />
        </mxCell>
        <mxCell id="Kujb0lxLds-63Nh_CwnO-6" value="" style="edgeStyle=orthogonalEdgeStyle;html=1;verticalAlign=bottom;endArrow=open;endSize=8;strokeColor=#ff0000;rounded=0;exitX=0.5;exitY=1;exitDx=0;exitDy=0;entryX=0.5;entryY=0;entryDx=0;entryDy=0;" parent="1" source="Kujb0lxLds-63Nh_CwnO-5" target="Kujb0lxLds-63Nh_CwnO-20" edge="1">
          <mxGeometry relative="1" as="geometry">
            <mxPoint x="526" y="480" as="targetPoint" />
            <mxPoint x="592" y="390" as="sourcePoint" />
            <Array as="points" />
          </mxGeometry>
        </mxCell>
        <mxCell id="Kujb0lxLds-63Nh_CwnO-7" value="PAUSED" style="rounded=1;whiteSpace=wrap;html=1;arcSize=40;fontColor=#000000;fillColor=#ffffc0;strokeColor=#ff0000;" parent="1" vertex="1">
          <mxGeometry x="160" y="330" width="120" height="40" as="geometry" />
        </mxCell>
        <mxCell id="Kujb0lxLds-63Nh_CwnO-8" value="" style="edgeStyle=orthogonalEdgeStyle;html=1;verticalAlign=bottom;endArrow=open;endSize=8;strokeColor=#ff0000;rounded=0;entryX=0.455;entryY=1.09;entryDx=0;entryDy=0;entryPerimeter=0;curved=1;exitX=0.5;exitY=1;exitDx=0;exitDy=0;" parent="1" source="Kujb0lxLds-63Nh_CwnO-7" target="Kujb0lxLds-63Nh_CwnO-3" edge="1">
          <mxGeometry relative="1" as="geometry">
            <mxPoint x="270" y="430" as="targetPoint" />
            <Array as="points">
              <mxPoint x="220" y="410" />
              <mxPoint x="385" y="410" />
            </Array>
          </mxGeometry>
        </mxCell>
        <mxCell id="SUXMB3aW6hiye4L-_HRm-5" value="gameResume()" style="edgeLabel;html=1;align=center;verticalAlign=middle;resizable=0;points=[];" vertex="1" connectable="0" parent="Kujb0lxLds-63Nh_CwnO-8">
          <mxGeometry x="0.4271" y="1" relative="1" as="geometry">
            <mxPoint x="-94" y="46" as="offset" />
          </mxGeometry>
        </mxCell>
        <mxCell id="Kujb0lxLds-63Nh_CwnO-10" value="" style="edgeStyle=orthogonalEdgeStyle;html=1;verticalAlign=bottom;endArrow=open;endSize=8;strokeColor=#ff0000;rounded=0;entryX=0.5;entryY=0;entryDx=0;entryDy=0;exitX=0;exitY=0.5;exitDx=0;exitDy=0;curved=1;" parent="1" source="Kujb0lxLds-63Nh_CwnO-3" target="Kujb0lxLds-63Nh_CwnO-7" edge="1">
          <mxGeometry relative="1" as="geometry">
            <mxPoint x="286" y="320" as="targetPoint" />
            <mxPoint x="210" y="240" as="sourcePoint" />
          </mxGeometry>
        </mxCell>
        <mxCell id="Kujb0lxLds-63Nh_CwnO-23" value="gamePause()" style="edgeLabel;html=1;align=center;verticalAlign=middle;resizable=0;points=[];" parent="Kujb0lxLds-63Nh_CwnO-10" vertex="1" connectable="0">
          <mxGeometry x="0.4298" y="-2" relative="1" as="geometry">
            <mxPoint y="13" as="offset" />
          </mxGeometry>
        </mxCell>
        <mxCell id="Kujb0lxLds-63Nh_CwnO-20" value="" style="ellipse;html=1;shape=endState;fillColor=#000000;strokeColor=#ff0000;" parent="1" vertex="1">
          <mxGeometry x="405" y="500" width="30" height="30" as="geometry" />
        </mxCell>
        <mxCell id="SUXMB3aW6hiye4L-_HRm-2" value="" style="edgeStyle=orthogonalEdgeStyle;html=1;verticalAlign=bottom;endArrow=open;endSize=8;strokeColor=#ff0000;rounded=0;entryX=0.954;entryY=0.118;entryDx=0;entryDy=0;entryPerimeter=0;curved=1;" edge="1" parent="1" target="Kujb0lxLds-63Nh_CwnO-3">
          <mxGeometry relative="1" as="geometry">
            <mxPoint x="500" y="230" as="targetPoint" />
            <mxPoint x="410" y="219" as="sourcePoint" />
            <Array as="points">
              <mxPoint x="470" y="130" />
            </Array>
          </mxGeometry>
        </mxCell>
        <mxCell id="SUXMB3aW6hiye4L-_HRm-4" value="&lt;font style=&quot;font-size: 9px;&quot;&gt;movePictrue : [not (isSolved or isPaused) ]&lt;/font&gt;" style="edgeLabel;html=1;align=center;verticalAlign=middle;resizable=0;points=[];" vertex="1" connectable="0" parent="SUXMB3aW6hiye4L-_HRm-2">
          <mxGeometry x="0.3882" relative="1" as="geometry">
            <mxPoint x="40" y="-4" as="offset" />
          </mxGeometry>
        </mxCell>
      </root>
    </mxGraphModel>
  </diagram>
</mxfile>
